<svg width="15" height="14" viewBox="0 0 15 14" fill="none" xmlns="http://www.w3.org/2000/svg">
<path d="M5.57143 12.9998C5.88702 12.9998 6.14286 12.744 6.14286 12.4284C6.14286 12.1128 5.88702 11.8569 5.57143 11.8569C5.25584 11.8569 5 12.1128 5 12.4284C5 12.744 5.25584 12.9998 5.57143 12.9998Z" stroke="black" stroke-linecap="round" stroke-linejoin="round"/>
<path d="M11.8573 12.9998C12.1728 12.9998 12.4287 12.744 12.4287 12.4284C12.4287 12.1128 12.1728 11.8569 11.8573 11.8569C11.5417 11.8569 11.2858 12.1128 11.2858 12.4284C11.2858 12.744 11.5417 12.9998 11.8573 12.9998Z" stroke="black" stroke-linecap="round" stroke-linejoin="round"/>
<path d="M1 1H3.28571L4.81714 8.65143C4.8694 8.91451 5.01252 9.15083 5.22145 9.31903C5.43039 9.48722 5.69183 9.57657 5.96 9.57143H11.5143C11.7825 9.57657 12.0439 9.48722 12.2528 9.31903C12.4618 9.15083 12.6049 8.91451 12.6571 8.65143L13.5714 3.85714H3.85714" stroke="black" stroke-linecap="round" stroke-linejoin="round"/>
</svg>
